# xmcd
#
# Track frame offsets:
#	150
#	25250
#	49975
#	65970
#	90230
#	106810
#	145907
#	166672
#	190017
#	210960
#
# Disc length: 3177 seconds
#
# Revision: 1
# Processed by: cddbd v1.5PL3 Copyright (c) Steve Scherf et al.
# Submitted via: audiograbber 1.83.01
#
DISCID=7e0c670a
DTITLE=Various Artist - Field Of Blues
DYEAR=2002
DGENRE=Blues
TTITLE0=Is It Love
TTITLE1=Been Gone Too Long
TTITLE2=Tell Me Mama
TTITLE3=You Got Me Hummin'
TTITLE4=My Tears Still Flow
TTITLE5=Charlie's Old Hwy 51 Blues
TTITLE6=Get Behind The Mule
TTITLE7=It Takes A Lotta Good Lovin'
TTITLE8=Out Of The Blue
TTITLE9=Shake Your Moneymaker
EXTD=Live At The Rogue Grants Pass, Oregon
EXTT0=Norton Buffalo and Roy Rogers
EXTT1=Charlie Musselwhite
EXTT2=John Hammond
EXTT3=Lydia Pense And Cold Blood
EXTT4=The Amazing Rhythm Aces
EXTT5=Charlie Musselwhite
EXTT6=John Hammond
EXTT7=Lydia Pense And Cold Blood
EXTT8=The Amazing Rhythm Aces
EXTT9=Norton Buffalo and Roy Rodgers
PLAYORDER=
